<?xml version="1.0" encoding="UTF-8" standalone="no"?>
<svg
   xmlns:dc="http://purl.org/dc/elements/1.1/"
   xmlns:cc="http://creativecommons.org/ns#"
   xmlns:rdf="http://www.w3.org/1999/02/22-rdf-syntax-ns#"
   xmlns:svg="http://www.w3.org/2000/svg"
   xmlns="http://www.w3.org/2000/svg"
   xmlns:sodipodi="http://sodipodi.sourceforge.net/DTD/sodipodi-0.dtd"
   xmlns:inkscape="http://www.inkscape.org/namespaces/inkscape"
   width="576"
   height="45"
   viewBox="0 0 152.4 11.90625"
   version="1.1"
   id="svg8"
   inkscape:version="1.0.1 (3bc2e813f5, 2020-09-07)"
   sodipodi:docname="sj_logo_576.svg">
  <defs
     id="defs2">
    <rect
       x="55.54195"
       y="5.261869"
       width="270.69391"
       height="42.094952"
       id="rect844" />
  </defs>
  <sodipodi:namedview
     id="base"
     pagecolor="#132f47"
     bordercolor="#666666"
     borderopacity="1"
     inkscape:pageopacity="0"
     inkscape:pageshadow="2"
     inkscape:zoom="1.7962793"
     inkscape:cx="190.77574"
     inkscape:cy="-93.60951"
     inkscape:document-units="mm"
     inkscape:current-layer="layer1"
     inkscape:document-rotation="0"
     showgrid="true"
     units="px"
     width="150mm"
     inkscape:window-width="1920"
     inkscape:window-height="1017"
     inkscape:window-x="1358"
     inkscape:window-y="-8"
     inkscape:window-maximized="1"
     inkscape:pagecheckerboard="false"
     showborder="true"
     borderlayer="false">
    <inkscape:grid
       type="xygrid"
       id="grid859" />
  </sodipodi:namedview>
  <metadata
     id="metadata5">
    <rdf:RDF>
      <cc:Work
         rdf:about="">
        <dc:format>image/svg+xml</dc:format>
        <dc:type
           rdf:resource="http://purl.org/dc/dcmitype/StillImage" />
        <dc:title></dc:title>
      </cc:Work>
    </rdf:RDF>
  </metadata>
  <g
     inkscape:label="Vrstva 1"
     inkscape:groupmode="layer"
     id="layer1">
    <text
       xml:space="preserve"
       id="text842"
       style="font-style:normal;font-weight:normal;font-size:5.47729px;line-height:1.25;font-family:sans-serif;white-space:pre;shape-inside:url(#rect844);fill:#000000;fill-opacity:1;stroke:none;"
       transform="matrix(1.4762244,0,0,1.3600805,-65.996826,-5.3486358)"><tspan
         x="55.541016"
         y="10.258817"><tspan
           style="font-style:normal;font-variant:normal;font-weight:normal;font-stretch:normal;font-size:5.47729px;font-family:'Bookman Old Style';-inkscape-font-specification:'Bookman Old Style';fill:#ebf4fc;fill-opacity:1">Stará Jihlava</tspan></tspan></text>
    <path
       id="rect848"
       style="fill:#ebf4fc;fill-opacity:1;stroke:#e2ecf5;stroke-width:0.100921;stroke-linecap:round;stroke-linejoin:round;stroke-miterlimit:4;stroke-dasharray:none;stroke-opacity:1;paint-order:markers stroke fill"
       d="m 8.5662025,1.5144605 c -0.035073,0 -0.063062,0.038242 -0.063062,0.085842 v 1.610993 H 8.3988646 L 8.249436,2.855146 A 0.12562742,0.1234588 0 0 0 8.3110226,2.7490486 0.12562742,0.1234588 0 0 0 8.1853959,2.6255898 0.12562742,0.1234588 0 0 0 8.1547268,2.6294516 L 7.9979358,2.2552133 A 0.11274559,0.12571854 0 0 0 8.090193,2.1317546 0.11274559,0.12571854 0 0 0 7.9775695,2.0061256 0.11274559,0.12571854 0 0 0 7.8647021,2.1317546 0.11274559,0.12571854 0 0 0 7.9630939,2.256419 L 7.7996812,2.6325827 a 0.12562742,0.12345881 0 0 0 -0.041464,-0.00699 0.12562742,0.12345881 0 0 0 -0.1256281,0.1234587 0.12562742,0.12345881 0 0 0 0.068708,0.1099555 L 7.5653642,3.1722323 7.5366598,3.2112966 H 7.281477 c -0.015944,0 -0.028712,-0.017426 -0.028712,-0.039064 V 2.2149463 H 7.153883 v 0.2657259 c 0,0.012983 -0.00785,0.023631 -0.017427,0.023631 H 6.9624959 c -0.00956,0 -0.017172,-0.010648 -0.017172,-0.023631 V 2.2149445 H 6.8228896 v 0.265726 c 0,0.012983 -0.00761,0.023631 -0.017171,0.023631 H 6.6317548 c -0.00956,0 -0.017172,-0.010648 -0.017172,-0.023631 v -0.265726 h -0.108206 c -0.024614,0 -0.044656,0.026757 -0.044656,0.060282 v 7.9358465 c 0,0.03353 0.020049,0.06052 0.044656,0.06052 H 7.7229031 C 7.843864,9.110054 8.402732,8.269001 9.0537682,8.269007 c 0.6510361,-6e-6 1.2101488,0.841047 1.3311108,2.002589 h 1.162545 c 0.02461,0 0.04441,-0.02699 0.04441,-0.06052 V 2.2752271 c 0,-0.033527 -0.0198,-0.060282 -0.04441,-0.060282 H 11.445597 V 2.480671 c 0,0.012983 -0.0079,0.023631 -0.01742,0.023631 h -0.17372 c -0.0096,0 -0.01716,-0.010648 -0.01716,-0.023631 V 2.2149445 H 11.13276 v 0.265726 c 0,0.012983 -0.0076,0.023631 -0.01716,0.023631 h -0.17397 c -0.0096,0 -0.01716,-0.010648 -0.01716,-0.023631 v -0.265726 h -0.130044 v 0.9572881 c 0,0.021637 -0.01301,0.039064 -0.02896,0.039064 h -0.254939 c -0.01594,0 -0.0287,-0.017425 -0.0287,-0.039064 -0.07714,-0.1762361 -0.108751,-0.2468724 -0.14085,-0.3185335 a 0.12562742,0.12345881 0 0 0 0.05938,-0.1046505 0.12562742,0.12345881 0 0 0 -0.125628,-0.1234588 0.12562742,0.12345881 0 0 0 -0.03485,0.00483 c -0.0067,-0.012738 -0.006,-0.00999 -0.159242,-0.3739934 a 0.11274559,0.12571854 0 0 0 0.09885,-0.1246668 0.11274559,0.12571854 0 0 0 -0.11287,-0.125629 0.11274559,0.12571854 0 0 0 -0.1126215,0.125629 0.11274559,0.12571854 0 0 0 0.096919,0.1244233 l -0.1589832,0.377607 a 0.12562742,0.1234588 0 0 0 -0.044663,-0.0082 0.12562742,0.1234588 0 0 0 -0.1256274,0.1234587 0.12562742,0.1234588 0 0 0 0.074344,0.1126079 L 9.6489987,3.2112963 H 9.54472 V 1.6003032 c 0,-0.047601 -0.027981,-0.085842 -0.063062,-0.085842 H 9.3364013 v 0.2437829 c 0,0.021637 -0.01276,0.039064 -0.028697,0.039064 H 9.1568016 c -0.015937,0 -0.028697,-0.017424 -0.028697,-0.039064 V 1.5144605 H 8.919788 v 0.2437829 c 0,0.021637 -0.01276,0.039064 -0.028704,0.039064 h -0.1509 c -0.015944,0 -0.028719,-0.017424 -0.028719,-0.039064 V 1.5144605 Z M 9.12343,4.4446783 c 0.00153,0 0.00314,-1.22e-5 0.00467,0 0.0011,-5.8e-6 0.00226,-5.8e-6 0.00336,0 0.1963308,-1.16e-5 0.3553042,0.1896892 0.3552903,0.423666 C 9.4867685,5.1023224 9.327549,5.2917808 9.1312204,5.2917692 8.9348896,5.2917808 8.7759147,5.1023224 8.7759294,4.8683443 8.7758665,4.6380108 8.930072,4.4446783 9.1233687,4.4446783 Z" />
  </g>
</svg>
