<?xml version="1.0" encoding="UTF-8" standalone="no"?>
<svg
   xmlns:dc="http://purl.org/dc/elements/1.1/"
   xmlns:cc="http://creativecommons.org/ns#"
   xmlns:rdf="http://www.w3.org/1999/02/22-rdf-syntax-ns#"
   xmlns:svg="http://www.w3.org/2000/svg"
   xmlns="http://www.w3.org/2000/svg"
   xmlns:sodipodi="http://sodipodi.sourceforge.net/DTD/sodipodi-0.dtd"
   xmlns:inkscape="http://www.inkscape.org/namespaces/inkscape"
   width="2560"
   height="100"
   viewBox="0 0 677.33334 26.458333"
   version="1.1"
   id="svg8"
   inkscape:version="1.0.1 (3bc2e813f5, 2020-09-07)"
   sodipodi:docname="sj_logo.svg">
  <defs
     id="defs2">
    <rect
       x="55.541949"
       y="5.2618688"
       width="270.69392"
       height="42.09495"
       id="rect844" />
  </defs>
  <sodipodi:namedview
     id="base"
     pagecolor="#132f47"
     bordercolor="#666666"
     borderopacity="1"
     inkscape:pageopacity="0"
     inkscape:pageshadow="2"
     inkscape:zoom="5.12"
     inkscape:cx="106.81435"
     inkscape:cy="34.952223"
     inkscape:document-units="mm"
     inkscape:current-layer="layer1"
     inkscape:document-rotation="0"
     showgrid="true"
     units="px"
     width="150mm"
     inkscape:window-width="1920"
     inkscape:window-height="1017"
     inkscape:window-x="1358"
     inkscape:window-y="-8"
     inkscape:window-maximized="1"
     inkscape:pagecheckerboard="false"
     showborder="true"
     borderlayer="false">
    <inkscape:grid
       type="xygrid"
       id="grid859" />
  </sodipodi:namedview>
  <metadata
     id="metadata5">
    <rdf:RDF>
      <cc:Work
         rdf:about="">
        <dc:format>image/svg+xml</dc:format>
        <dc:type
           rdf:resource="http://purl.org/dc/dcmitype/StillImage" />
        <dc:title />
      </cc:Work>
    </rdf:RDF>
  </metadata>
  <g
     inkscape:label="Vrstva 1"
     inkscape:groupmode="layer"
     id="layer1">
    <text
       xml:space="preserve"
       id="text842"
       style="font-style:normal;font-weight:normal;font-size:15.9339px;line-height:1.25;font-family:sans-serif;white-space:pre;shape-inside:url(#rect844);fill:#000000;fill-opacity:1;stroke:none;"
       transform="matrix(1.4762244,0,0,1.3600805,-42.946329,-6.4039055)"><tspan
         x="55.541016"
         y="19.798699"><tspan
           style="font-style:normal;font-variant:normal;font-weight:normal;font-stretch:normal;font-size:15.9339px;font-family:'Bookman Old Style';-inkscape-font-specification:'Bookman Old Style';fill:#ebf4fc;fill-opacity:1">Stará Jihlava</tspan></tspan></text>
    <path
       id="rect848"
       style="fill:#ebf4fc;fill-opacity:1;stroke:#e2ecf5;stroke-width:0.810353;stroke-linecap:round;stroke-linejoin:round;stroke-miterlimit:4;stroke-dasharray:none;stroke-opacity:1;paint-order:markers stroke fill"
       d="M 110.56445 15 C 110.2853 15 110.0625 15.309746 110.0625 15.695312 L 110.0625 28.744141 L 109.23242 28.744141 L 108.04297 25.859375 A 0.99999992 0.99999992 0 0 0 108.5332 25 A 0.99999992 0.99999992 0 0 0 107.5332 24 A 0.99999992 0.99999992 0 0 0 107.28906 24.03125 L 106.04102 21 A 0.89746003 1.0183035 0 0 0 106.77539 20 A 0.89746003 1.0183035 0 0 0 105.87891 18.982422 A 0.89746003 1.0183035 0 0 0 104.98047 20 A 0.89746003 1.0183035 0 0 0 105.76367 21.009766 L 104.46289 24.056641 A 0.99999995 0.99999995 0 0 0 104.13281 24 A 0.99999995 0.99999995 0 0 0 103.13281 25 A 0.99999995 0.99999995 0 0 0 103.67969 25.890625 L 102.59766 28.427734 L 102.36914 28.744141 L 100.33789 28.744141 C 100.21097 28.744141 100.10938 28.602995 100.10938 28.427734 L 100.10938 20.673828 L 99.322266 20.673828 L 99.322266 22.826172 C 99.322266 22.93133 99.259713 23.017578 99.183594 23.017578 L 97.798828 23.017578 C 97.722708 23.017578 97.662109 22.93133 97.662109 22.826172 L 97.662109 20.673828 L 96.6875 20.673828 L 96.6875 22.826172 C 96.6875 22.93133 96.626901 23.017578 96.550781 23.017578 L 95.166016 23.017578 C 95.089896 23.017578 95.029297 22.93133 95.029297 22.826172 L 95.029297 20.673828 L 94.167969 20.673828 C 93.972076 20.673828 93.8125 20.890552 93.8125 21.162109 L 93.8125 85.441406 C 93.8125 85.712965 93.972038 85.931641 94.167969 85.931641 L 103.85156 85.931641 C 104.81442 76.5233 109.26304 69.710892 114.44531 69.710938 C 119.62759 69.710892 124.07816 76.5233 125.04102 85.931641 L 134.29492 85.931641 C 134.49081 85.931641 134.64844 85.712996 134.64844 85.441406 L 134.64844 21.162109 C 134.64844 20.890547 134.49085 20.673828 134.29492 20.673828 L 133.48438 20.673828 L 133.48438 22.826172 C 133.48438 22.93133 133.42186 23.017578 133.3457 23.017578 L 131.96289 23.017578 C 131.88677 23.017578 131.82617 22.93133 131.82617 22.826172 L 131.82617 20.673828 L 130.99414 20.673828 L 130.99414 22.826172 C 130.99414 22.93133 130.93358 23.017578 130.85742 23.017578 L 129.47266 23.017578 C 129.39654 23.017578 129.33594 22.93133 129.33594 22.826172 L 129.33594 20.673828 L 128.30078 20.673828 L 128.30078 28.427734 C 128.30078 28.602991 128.19723 28.744141 128.07031 28.744141 L 126.04102 28.744141 C 125.9141 28.744141 125.8125 28.602995 125.8125 28.427734 C 125.19859 27.000244 124.94693 26.4281 124.69141 25.847656 A 0.99999994 0.99999994 0 0 0 125.16406 25 A 0.99999994 0.99999994 0 0 0 124.16406 24 A 0.99999994 0.99999994 0 0 0 123.88672 24.039062 C 123.8329 23.935884 123.83914 23.958179 122.61914 21.009766 A 0.89746004 1.0183035 0 0 0 123.40625 20 A 0.89746004 1.0183035 0 0 0 122.50781 18.982422 A 0.89746004 1.0183035 0 0 0 121.61133 20 A 0.89746004 1.0183035 0 0 0 122.38281 21.007812 L 121.11719 24.066406 A 0.99999993 0.99999993 0 0 0 120.76172 24 A 0.99999993 0.99999993 0 0 0 119.76172 25 A 0.99999993 0.99999993 0 0 0 120.35352 25.912109 L 119.18359 28.744141 L 118.35352 28.744141 L 118.35352 15.695312 C 118.35352 15.309748 118.13074 15 117.85156 15 L 116.69531 15 L 116.69531 16.974609 C 116.69531 17.149866 116.59368 17.291016 116.4668 17.291016 L 115.26562 17.291016 C 115.13876 17.291016 115.03711 17.14987 115.03711 16.974609 L 115.03711 15 L 113.37891 15 L 113.37891 16.974609 C 113.37891 17.149866 113.27723 17.291016 113.15039 17.291016 L 111.94922 17.291016 C 111.8223 17.291016 111.7207 17.14987 111.7207 16.974609 L 111.7207 15 L 110.56445 15 z M 115 38.734375 C 115.01247 38.734375 115.02464 38.734277 115.03711 38.734375 C 115.0458 38.73433 115.05576 38.73433 115.06445 38.734375 C 116.62725 38.734281 117.89269 40.270824 117.89258 42.166016 C 117.89269 44.061203 116.62529 45.595794 115.0625 45.595703 C 113.4997 45.595794 112.23426 44.061203 112.23438 42.166016 C 112.23388 40.300343 113.46136 38.734375 115 38.734375 z "
       transform="scale(0.26458333)" />
  </g>
</svg>
