<?xml version="1.0" encoding="UTF-8" standalone="no"?>
<svg
   xmlns:dc="http://purl.org/dc/elements/1.1/"
   xmlns:cc="http://creativecommons.org/ns#"
   xmlns:rdf="http://www.w3.org/1999/02/22-rdf-syntax-ns#"
   xmlns:svg="http://www.w3.org/2000/svg"
   xmlns="http://www.w3.org/2000/svg"
   xmlns:sodipodi="http://sodipodi.sourceforge.net/DTD/sodipodi-0.dtd"
   xmlns:inkscape="http://www.inkscape.org/namespaces/inkscape"
   width="992"
   height="75"
   viewBox="0 0 262.46667 19.843749"
   version="1.1"
   id="svg8"
   inkscape:version="1.0.1 (3bc2e813f5, 2020-09-07)"
   sodipodi:docname="sj_logo_992.svg">
  <defs
     id="defs2">
    <rect
       x="55.54195"
       y="5.261869"
       width="270.69391"
       height="42.094952"
       id="rect844" />
  </defs>
  <sodipodi:namedview
     id="base"
     pagecolor="#132f47"
     bordercolor="#666666"
     borderopacity="1"
     inkscape:pageopacity="0"
     inkscape:pageshadow="2"
     inkscape:zoom="3.5925586"
     inkscape:cx="172.78938"
     inkscape:cy="40"
     inkscape:document-units="mm"
     inkscape:current-layer="layer1"
     inkscape:document-rotation="0"
     showgrid="true"
     units="px"
     width="150mm"
     inkscape:window-width="1920"
     inkscape:window-height="1017"
     inkscape:window-x="1358"
     inkscape:window-y="-8"
     inkscape:window-maximized="1"
     inkscape:pagecheckerboard="false"
     showborder="true"
     borderlayer="false">
    <inkscape:grid
       type="xygrid"
       id="grid859" />
  </sodipodi:namedview>
  <metadata
     id="metadata5">
    <rdf:RDF>
      <cc:Work
         rdf:about="">
        <dc:format>image/svg+xml</dc:format>
        <dc:type
           rdf:resource="http://purl.org/dc/dcmitype/StillImage" />
        <dc:title></dc:title>
      </cc:Work>
    </rdf:RDF>
  </metadata>
  <g
     inkscape:label="Vrstva 1"
     inkscape:groupmode="layer"
     id="layer1">
    <text
       xml:space="preserve"
       id="text842"
       style="font-style:normal;font-weight:normal;font-size:7.96696px;line-height:1.25;font-family:sans-serif;white-space:pre;shape-inside:url(#rect844);fill:#000000;fill-opacity:1;stroke:none;"
       transform="matrix(1.4762244,0,0,1.3600805,-59.059549,-3.833395)"><tspan
         x="55.541016"
         y="12.530218"><tspan
           style="font-style:normal;font-variant:normal;font-weight:normal;font-stretch:normal;font-size:7.96696px;font-family:'Bookman Old Style';-inkscape-font-specification:'Bookman Old Style';fill:#ebf4fc;fill-opacity:1">Stará Jihlava</tspan></tspan></text>
    <path
       id="rect848"
       style="fill:#ebf4fc;fill-opacity:1;stroke:#e2ecf5;stroke-width:0.146086;stroke-linecap:round;stroke-linejoin:round;stroke-miterlimit:4;stroke-dasharray:none;stroke-opacity:1;paint-order:markers stroke fill"
       d="m 13.400969,3.675043 c -0.05063,0 -0.09104,0.055502 -0.09104,0.1245884 V 6.1377647 H 13.159378 L 12.943645,5.6208625 a 0.18137156,0.17918336 0 0 0 0.08891,-0.1539857 0.18137156,0.17918336 0 0 0 -0.181371,-0.1791834 0.18137156,0.17918336 0 0 0 -0.04428,0.0056 L 12.580547,4.7501432 a 0.16277373,0.18246305 0 0 0 0.133195,-0.1791833 0.16277373,0.18246305 0 0 0 -0.162598,-0.182333 0.16277373,0.18246305 0 0 0 -0.16295,0.182333 0.16277373,0.18246305 0 0 0 0.142051,0.1809332 l -0.235924,0.5459494 a 0.18137156,0.17918337 0 0 0 -0.05986,-0.010149 0.18137156,0.17918337 0 0 0 -0.181372,0.1791834 0.18137156,0.17918337 0 0 0 0.09919,0.1595851 l -0.19625,0.4546078 -0.04145,0.056696 h -0.368412 c -0.02302,0 -0.04145,-0.025291 -0.04145,-0.056696 V 4.6916983 h -0.142759 v 0.3856643 c 0,0.018843 -0.01134,0.034297 -0.02516,0.034297 h -0.25115 c -0.01381,0 -0.0248,-0.015454 -0.0248,-0.034297 V 4.6916987 H 10.884085 V 5.077363 c 0,0.018843 -0.01099,0.034297 -0.0248,0.034297 h -0.251156 c -0.01381,0 -0.0248,-0.015454 -0.0248,-0.034297 V 4.6916987 h -0.15622 c -0.03553,0 -0.06447,0.038833 -0.06447,0.087491 V 16.296972 c 0,0.04866 0.02894,0.08784 0.06447,0.08784 h 1.75633 c 0.174635,-1.685818 0.981487,-2.906489 1.921404,-2.906481 0.939919,-8e-6 1.747125,1.220663 1.92176,2.906481 h 1.678396 c 0.03552,0 0.06412,-0.03917 0.06412,-0.08784 V 4.7791905 c 0,-0.04866 -0.02859,-0.087491 -0.06412,-0.087491 h -0.147011 v 0.3856643 c 0,0.018843 -0.01134,0.034297 -0.02515,0.034297 h -0.250803 c -0.01381,0 -0.02479,-0.015454 -0.02479,-0.034297 V 4.6916987 H 17.106342 V 5.077363 c 0,0.018843 -0.01098,0.034297 -0.02479,0.034297 h -0.251158 c -0.01381,0 -0.02479,-0.015454 -0.02479,-0.034297 V 4.6916987 h -0.187749 v 1.389371 c 0,0.031403 -0.01878,0.056696 -0.04181,0.056696 h -0.368063 c -0.02302,0 -0.04145,-0.025291 -0.04145,-0.056696 -0.111343,-0.2557823 -0.156987,-0.3583011 -0.20333,-0.4623071 a 0.18137157,0.17918337 0 0 0 0.08573,-0.1518858 0.18137157,0.17918337 0 0 0 -0.181372,-0.1791834 0.18137157,0.17918337 0 0 0 -0.0503,0.007 c -0.0098,-0.018488 -0.0086,-0.014493 -0.229903,-0.5427995 a 0.16277373,0.18246305 0 0 0 0.14276,-0.1809332 0.16277373,0.18246305 0 0 0 -0.162952,-0.182333 0.16277373,0.18246305 0 0 0 -0.162596,0.182333 0.16277373,0.18246305 0 0 0 0.139925,0.1805832 L 15.31494,5.2995949 A 0.18137156,0.17918336 0 0 0 15.250467,5.2876977 0.18137156,0.17918336 0 0 0 15.069096,5.466881 0.18137156,0.17918336 0 0 0 15.17643,5.6303157 L 14.964238,6.1377648 H 14.813684 V 3.7996314 c 0,-0.069087 -0.0404,-0.1245884 -0.09104,-0.1245884 h -0.20971 v 0.3538172 c 0,0.031403 -0.01843,0.056696 -0.04144,0.056696 h -0.217858 c -0.02301,0 -0.04144,-0.02529 -0.04144,-0.056696 V 3.675043 h -0.300751 v 0.3538172 c 0,0.031403 -0.01843,0.056696 -0.04145,0.056696 h -0.217858 c -0.02302,0 -0.04145,-0.02529 -0.04145,-0.056696 V 3.675043 Z m 0.804483,4.2528054 c 0.0022,0 0.0045,-1.76e-5 0.0068,0 0.0016,-8.4e-6 0.0033,-8.4e-6 0.0049,0 0.283448,-1.68e-5 0.512962,0.2753076 0.512942,0.6148927 2e-5,0.3395868 -0.22985,0.6145593 -0.513295,0.6145427 -0.283447,1.66e-5 -0.512963,-0.2749559 -0.512942,-0.6145427 -9.1e-5,-0.3342973 0.22254,-0.6148927 0.501606,-0.6148927 z" />
  </g>
</svg>
