<?xml version="1.0" encoding="UTF-8" standalone="no"?>
<svg
   xmlns:dc="http://purl.org/dc/elements/1.1/"
   xmlns:cc="http://creativecommons.org/ns#"
   xmlns:rdf="http://www.w3.org/1999/02/22-rdf-syntax-ns#"
   xmlns:svg="http://www.w3.org/2000/svg"
   xmlns="http://www.w3.org/2000/svg"
   xmlns:sodipodi="http://sodipodi.sourceforge.net/DTD/sodipodi-0.dtd"
   xmlns:inkscape="http://www.inkscape.org/namespaces/inkscape"
   width="1200"
   height="80"
   viewBox="0 0 317.5 21.166666"
   version="1.1"
   id="svg8"
   inkscape:version="1.0.1 (3bc2e813f5, 2020-09-07)"
   sodipodi:docname="sj_logo_1200.svg">
  <defs
     id="defs2">
    <rect
       x="55.54195"
       y="5.261869"
       width="270.69391"
       height="42.094952"
       id="rect844" />
  </defs>
  <sodipodi:namedview
     id="base"
     pagecolor="#132f47"
     bordercolor="#666666"
     borderopacity="1"
     inkscape:pageopacity="0"
     inkscape:pageshadow="2"
     inkscape:zoom="0.64"
     inkscape:cx="160.98922"
     inkscape:cy="37.795669"
     inkscape:document-units="mm"
     inkscape:current-layer="layer1"
     inkscape:document-rotation="0"
     showgrid="true"
     units="px"
     width="150mm"
     inkscape:window-width="1920"
     inkscape:window-height="1017"
     inkscape:window-x="1358"
     inkscape:window-y="-8"
     inkscape:window-maximized="1"
     inkscape:pagecheckerboard="false"
     showborder="true"
     borderlayer="false">
    <inkscape:grid
       type="xygrid"
       id="grid859" />
  </sodipodi:namedview>
  <metadata
     id="metadata5">
    <rdf:RDF>
      <cc:Work
         rdf:about="">
        <dc:format>image/svg+xml</dc:format>
        <dc:type
           rdf:resource="http://purl.org/dc/dcmitype/StillImage" />
        <dc:title></dc:title>
      </cc:Work>
    </rdf:RDF>
  </metadata>
  <g
     inkscape:label="Vrstva 1"
     inkscape:groupmode="layer"
     id="layer1">
    <text
       xml:space="preserve"
       id="text842"
       style="font-style:normal;font-weight:normal;font-size:15.9339px;line-height:1.25;font-family:sans-serif;white-space:pre;shape-inside:url(#rect844);fill:#000000;fill-opacity:1;stroke:none;"
       transform="matrix(1.4762244,0,0,1.3600805,-59.059549,-11.333686)"><tspan
         x="55.541016"
         y="19.798699"><tspan
           style="font-style:normal;font-variant:normal;font-weight:normal;font-stretch:normal;font-size:9.9587px;font-family:'Bookman Old Style';-inkscape-font-specification:'Bookman Old Style';fill:#ebf4fc;fill-opacity:1">Stará Jihlava</tspan></tspan></text>
    <path
       id="rect848"
       style="fill:#ebf4fc;fill-opacity:1;stroke:#e2ecf5;stroke-width:0.177727;stroke-linecap:round;stroke-linejoin:round;stroke-miterlimit:4;stroke-dasharray:none;stroke-opacity:1;paint-order:markers stroke fill"
       d="m 12.226901,2.8850808 c -0.06308,0 -0.113422,0.065937 -0.113422,0.1480135 V 5.8108441 H 11.925913 L 11.657142,5.1967538 a 0.22596208,0.21287347 0 0 0 0.110774,-0.1829381 0.22596208,0.21287347 0 0 0 -0.225962,-0.2128735 0.22596208,0.21287347 0 0 0 -0.05516,0.00665 L 11.204776,4.1623217 A 0.20279194,0.21676982 0 0 0 11.370717,3.9494482 0.20279194,0.21676982 0 0 0 11.168145,3.7328329 0.20279194,0.21676982 0 0 0 10.965132,3.9494482 0.20279194,0.21676982 0 0 0 11.142107,4.1644006 L 10.84818,4.8129995 A 0.22596208,0.21287348 0 0 0 10.7736,4.8009425 0.22596208,0.21287348 0 0 0 10.547637,5.013816 0.22596208,0.21287348 0 0 0 10.67121,5.2034064 l -0.244498,0.5400833 -0.05164,0.067355 H 9.9160867 c -0.02868,0 -0.05164,-0.030046 -0.05164,-0.067355 V 4.0928883 h -0.177857 v 0.458177 c 0,0.022386 -0.01413,0.040745 -0.03134,0.040745 H 9.3423535 c -0.0172,0 -0.030893,-0.018359 -0.030893,-0.040745 V 4.0928883 H 9.0912357 v 0.458177 c 0,0.022386 -0.013694,0.040745 -0.030894,0.040745 H 8.747438 c -0.0172,0 -0.030894,-0.018359 -0.030894,-0.040745 V 4.0928883 H 8.5219169 c -0.044264,0 -0.080322,0.046134 -0.080322,0.1039421 V 17.880189 c 0,0.05781 0.036049,0.104358 0.080322,0.104358 h 2.1881261 c 0.217569,-2.002786 1.222787,-3.452968 2.393785,-3.452958 1.170999,-10e-6 2.176658,1.450172 2.394228,3.452958 h 2.091032 c 0.04426,0 0.07988,-0.04654 0.07988,-0.104358 V 4.1968304 c 0,-0.057808 -0.03561,-0.1039421 -0.07988,-0.1039421 h -0.183154 v 0.458177 c 0,0.022386 -0.01413,0.040745 -0.03133,0.040745 h -0.312463 c -0.0172,0 -0.03089,-0.018359 -0.03089,-0.040745 v -0.458177 h -0.188007 v 0.458177 c 0,0.022386 -0.01368,0.040745 -0.03089,0.040745 h -0.312906 c -0.0172,0 -0.03089,-0.018359 -0.03089,-0.040745 v -0.458177 h -0.233907 v 1.6506011 c 0,0.037307 -0.0234,0.067355 -0.05208,0.067355 h -0.458552 c -0.02868,0 -0.05164,-0.030046 -0.05164,-0.067355 -0.13872,-0.3038746 -0.195585,-0.4256691 -0.253322,-0.5492303 a 0.22596209,0.21287348 0 0 0 0.106803,-0.1804434 0.22596209,0.21287348 0 0 0 -0.225962,-0.2128735 0.22596209,0.21287348 0 0 0 -0.06267,0.00832 c -0.01216,-0.021964 -0.01075,-0.017218 -0.286424,-0.6448568 a 0.20279194,0.21676982 0 0 0 0.177857,-0.2149524 0.20279194,0.21676982 0 0 0 -0.203014,-0.2166153 0.20279194,0.21676982 0 0 0 -0.202571,0.2166153 0.20279194,0.21676982 0 0 0 0.174326,0.2145365 l -0.285983,0.6510936 a 0.22596208,0.21287347 0 0 0 -0.08032,-0.014136 0.22596208,0.21287347 0 0 0 -0.225962,0.2128735 0.22596208,0.21287347 0 0 0 0.133723,0.1941638 L 14.1745,5.8108441 H 13.986934 V 3.0330943 c 0,-0.082077 -0.05034,-0.1480135 -0.113422,-0.1480135 h -0.261269 v 0.4203419 c 0,0.037307 -0.02296,0.067355 -0.05163,0.067355 h -0.27142 c -0.02867,0 -0.05163,-0.030045 -0.05163,-0.067355 V 2.8850808 h -0.374691 v 0.4203419 c 0,0.037307 -0.02297,0.067355 -0.05164,0.067355 h -0.27142 c -0.02868,0 -0.05164,-0.030045 -0.05164,-0.067355 V 2.8850808 Z M 13.229167,7.9375 c 0.0028,0 0.0056,-2.1e-5 0.0084,0 0.002,-10e-6 0.0042,-10e-6 0.0061,0 0.353133,-2e-5 0.639074,0.327071 0.639049,0.730505 2.5e-5,0.403436 -0.286359,0.730109 -0.63949,0.73009 -0.353133,1.9e-5 -0.639075,-0.326654 -0.639049,-0.73009 C 12.604064,8.270853 12.881429,7.9375 13.229103,7.9375 Z" />
  </g>
</svg>
