<?xml version="1.0" encoding="UTF-8" standalone="no"?>
<svg
   xmlns:dc="http://purl.org/dc/elements/1.1/"
   xmlns:cc="http://creativecommons.org/ns#"
   xmlns:rdf="http://www.w3.org/1999/02/22-rdf-syntax-ns#"
   xmlns:svg="http://www.w3.org/2000/svg"
   xmlns="http://www.w3.org/2000/svg"
   xmlns:sodipodi="http://sodipodi.sourceforge.net/DTD/sodipodi-0.dtd"
   xmlns:inkscape="http://www.inkscape.org/namespaces/inkscape"
   width="768"
   height="65"
   viewBox="0 0 203.2 17.197916"
   version="1.1"
   id="svg8"
   inkscape:version="1.0.1 (3bc2e813f5, 2020-09-07)"
   sodipodi:docname="sj_logo_768.svg">
  <defs
     id="defs2">
    <rect
       x="55.54195"
       y="5.261869"
       width="270.69391"
       height="42.094952"
       id="rect844" />
  </defs>
  <sodipodi:namedview
     id="base"
     pagecolor="#132f47"
     bordercolor="#666666"
     borderopacity="1"
     inkscape:pageopacity="0"
     inkscape:pageshadow="2"
     inkscape:zoom="0.89813966"
     inkscape:cx="190.77574"
     inkscape:cy="40"
     inkscape:document-units="mm"
     inkscape:current-layer="layer1"
     inkscape:document-rotation="0"
     showgrid="true"
     units="px"
     width="150mm"
     inkscape:window-width="1920"
     inkscape:window-height="1017"
     inkscape:window-x="1358"
     inkscape:window-y="-8"
     inkscape:window-maximized="1"
     inkscape:pagecheckerboard="false"
     showborder="true"
     borderlayer="false">
    <inkscape:grid
       type="xygrid"
       id="grid859" />
  </sodipodi:namedview>
  <metadata
     id="metadata5">
    <rdf:RDF>
      <cc:Work
         rdf:about="">
        <dc:format>image/svg+xml</dc:format>
        <dc:type
           rdf:resource="http://purl.org/dc/dcmitype/StillImage" />
        <dc:title></dc:title>
      </cc:Work>
    </rdf:RDF>
  </metadata>
  <g
     inkscape:label="Vrstva 1"
     inkscape:groupmode="layer"
     id="layer1">
    <text
       xml:space="preserve"
       id="text842"
       style="font-style:normal;font-weight:normal;font-size:6.97109px;line-height:1.25;font-family:sans-serif;white-space:pre;shape-inside:url(#rect844);fill:#000000;fill-opacity:1;stroke:none;"
       transform="matrix(1.4762244,0,0,1.3600805,-65.896922,-4.0490485)"><tspan
         x="55.541016"
         y="11.621655"><tspan
           style="font-style:normal;font-variant:normal;font-weight:normal;font-stretch:normal;font-size:6.97109px;font-family:'Bookman Old Style';-inkscape-font-specification:'Bookman Old Style';fill:#ebf4fc;fill-opacity:1">Stará Jihlava</tspan></tspan></text>
    <path
       id="rect848"
       style="fill:#ebf4fc;fill-opacity:1;stroke:#e2ecf5;stroke-width:0.136104;stroke-linecap:round;stroke-linejoin:round;stroke-miterlimit:4;stroke-dasharray:none;stroke-opacity:1;paint-order:markers stroke fill"
       d="m 7.449357,3.038052 c -0.04802,0 -0.08634,0.050801 -0.08634,0.1140351 V 5.2921677 H 7.22025 L 7.015663,4.8190499 A 0.17200005,0.16400555 0 0 0 7.099983,4.6781076 0.17200005,0.16400555 0 0 0 6.927984,4.5141021 0.17200005,0.16400555 0 0 0 6.885994,4.5192321 L 6.671327,4.0220853 A 0.15436318,0.16700744 0 0 0 6.797639,3.8580798 0.15436318,0.16700744 0 0 0 6.643443,3.6911914 0.15436318,0.16700744 0 0 0 6.488913,3.8580798 0.15436318,0.16700744 0 0 0 6.623624,4.023687 L 6.399891,4.5233916 A 0.17200005,0.16400556 0 0 0 6.343121,4.5141016 0.17200005,0.16400556 0 0 0 6.17112,4.6781071 0.17200005,0.16400556 0 0 0 6.26519,4.8241745 l -0.186109,0.4161001 -0.0393,0.051894 H 5.690403 c -0.02183,0 -0.03931,-0.023149 -0.03931,-0.051894 V 3.9685936 H 5.51571 v 0.3529965 c 0,0.017247 -0.01075,0.031392 -0.02386,0.031392 H 5.253677 c -0.01309,0 -0.02351,-0.014145 -0.02351,-0.031392 V 3.9685913 H 5.062538 v 0.3529965 c 0,0.017247 -0.01042,0.031392 -0.02351,0.031392 H 4.80085 c -0.01309,0 -0.02351,-0.014145 -0.02351,-0.031392 V 3.9685913 H 4.629192 c -0.0337,0 -0.06114,0.035544 -0.06114,0.08008 V 14.590835 c 0,0.04454 0.02745,0.0804 0.06114,0.0804 h 1.66558 c 0.165611,-1.54302 0.930773,-2.660294 1.822125,-2.660286 0.891352,-8e-6 1.656849,1.117266 1.822462,2.660286 h 1.591673 c 0.03369,0 0.0608,-0.03585 0.0608,-0.0804 V 4.0486721 c 0,-0.044538 -0.02711,-0.08008 -0.0608,-0.08008 h -0.139415 v 0.3529964 c 0,0.017247 -0.01075,0.031392 -0.02385,0.031392 h -0.237844 c -0.01309,0 -0.0235,-0.014145 -0.0235,-0.031392 V 3.9685913 h -0.14312 v 0.3529965 c 0,0.017247 -0.01041,0.031392 -0.0235,0.031392 h -0.238181 c -0.01309,0 -0.0235,-0.014145 -0.0235,-0.031392 V 3.9685913 h -0.178047 v 1.2716838 c 0,0.028743 -0.01781,0.051894 -0.03965,0.051894 h -0.349044 c -0.02183,0 -0.0393,-0.023148 -0.0393,-0.051894 C 9.966483,5.0061589 9.923198,4.912324 9.879251,4.8171278 a 0.17200006,0.16400556 0 0 0 0.0813,-0.1390202 0.17200006,0.16400556 0 0 0 -0.172,-0.1640055 0.17200006,0.16400556 0 0 0 -0.04771,0.00641 C 9.731641,4.5035901 9.732641,4.5072471 9.522817,4.0236906 A 0.15436318,0.16700744 0 0 0 9.658152,3.8580802 0.15436318,0.16700744 0 0 0 9.503619,3.6911918 0.15436318,0.16700744 0 0 0 9.349425,3.8580802 0.15436318,0.16700744 0 0 0 9.482119,4.023367 L 9.264428,4.5249952 a 0.17200005,0.16400555 0 0 0 -0.06115,-0.010889 0.17200005,0.16400555 0 0 0 -0.172,0.1640054 0.17200005,0.16400555 0 0 0 0.101786,0.1495909 L 8.931844,5.2921682 H 8.789073 V 3.1520875 c 0,-0.063235 -0.03831,-0.1140351 -0.08634,-0.1140351 H 8.503858 v 0.3238469 c 0,0.028743 -0.01747,0.051894 -0.03929,0.051894 H 8.257963 c -0.02182,0 -0.03929,-0.023147 -0.03929,-0.051894 V 3.038052 H 7.933461 v 0.3238469 c 0,0.028743 -0.01747,0.051894 -0.0393,0.051894 H 7.68756 c -0.02183,0 -0.03932,-0.023147 -0.03932,-0.051894 V 3.038052 Z m 0.762916,3.8925695 c 0.0021,0 0.0043,-1.61e-5 0.0064,0 0.0015,-7.7e-6 0.0031,-7.7e-6 0.0046,0 C 8.492075,6.9306062 8.70973,7.1826091 8.709711,7.4934294 8.70973,7.8042513 8.491738,8.0559322 8.222939,8.0559169 7.954137,8.0559322 7.73648,7.8042513 7.7365,7.4934294 7.736414,7.1874489 7.947541,6.9306215 8.212189,6.9306215 Z" />
  </g>
</svg>
